#N canvas 11 448 677 487 10;
#X obj -4 10 inlet speed;
#X obj 216 10 inlet direction;
#X obj 327 10 inlet intensity;
#X obj 134 10 inlet bf_nb;
#X obj -4 327 outlet stimulus-properties;
#X obj -4 50 rand \$1 \$2;
#X obj -4 30 t b f f;
#X text 63 51 duration;
#X obj -4 130 rand \$3 \$4;
#X text 66 130 center shift;
#X obj -4 90 get-displacement;
#X obj -4 70 t f f;
#X obj -4 110 t b f;
#X obj 134 31 f \$5;
#X obj 134 -10 loadbang;
#X obj 119 71 *;
#X obj 27 170 +;
#X obj -4 150 t f f f;
#X obj 74 170 +;
#X obj 216 220 gate 2;
#X obj 27 190 pack f f;
#X msg 216 260 \$1 \$2;
#X msg 249 240 \$2 \$1;
#X obj 216 280 unpack f f;
#X obj 146 71 *;
#X obj -4 307 pack f f f f f f f f f;
#X obj 134 51 t f f f;
#X obj 216 30 t f f;
#X obj 216 50 expr if ($f1 == 0 \, 1 \, 2);
#X connect 0 0 6 0;
#X connect 1 0 27 0;
#X connect 2 0 25 8;
#X connect 3 0 13 0;
#X connect 5 0 11 0;
#X connect 6 0 5 0;
#X connect 6 1 10 1;
#X connect 6 2 25 5;
#X connect 8 0 17 0;
#X connect 10 0 12 0;
#X connect 10 1 16 1;
#X connect 10 2 18 1;
#X connect 11 0 10 0;
#X connect 11 1 15 0;
#X connect 12 0 8 0;
#X connect 12 1 24 0;
#X connect 13 0 26 0;
#X connect 14 0 13 0;
#X connect 15 0 25 4;
#X connect 16 0 20 0;
#X connect 17 0 25 0;
#X connect 17 1 16 0;
#X connect 17 2 18 0;
#X connect 18 0 20 1;
#X connect 19 0 21 0;
#X connect 19 1 22 0;
#X connect 20 0 19 1;
#X connect 21 0 23 0;
#X connect 22 0 23 0;
#X connect 23 0 25 1;
#X connect 23 1 25 2;
#X connect 24 0 25 3;
#X connect 25 0 4 0;
#X connect 26 0 15 1;
#X connect 26 1 24 1;
#X connect 26 2 25 6;
#X connect 27 0 28 0;
#X connect 27 1 25 7;
#X connect 28 0 19 0;
