#N canvas 0 0 625 369 10;
#X obj -339 -3 inlet~;
#X obj -329 17 inlet~;
#X obj -319 37 inlet~;
#X obj -309 57 inlet~;
#X obj -299 77 inlet~;
#X obj -289 97 inlet~;
#X obj -279 117 inlet~;
#X obj -269 137 inlet~;
#X obj -259 157 inlet~;
#X obj -249 177 inlet~;
#X obj -239 197 inlet~;
#X obj -229 217 inlet~;
#X obj -339 237 bandpass~;
#X obj -329 257 bandpass~;
#X obj -319 277 bandpass~;
#X obj -309 297 bandpass~;
#X obj -299 317 bandpass~;
#X obj -289 337 bandpass~;
#X obj -279 357 bandpass~;
#X obj -269 377 bandpass~;
#X obj -259 397 bandpass~;
#X obj -249 417 bandpass~;
#X obj -239 437 bandpass~;
#X obj -229 457 bandpass~;
#X obj -339 477 outlet~;
#X obj -329 497 outlet~;
#X obj -319 517 outlet~;
#X obj -309 537 outlet~;
#X obj -299 557 outlet~;
#X obj -289 577 outlet~;
#X obj -279 597 outlet~;
#X obj -269 617 outlet~;
#X obj -259 637 outlet~;
#X obj -249 657 outlet~;
#X obj -239 677 outlet~;
#X obj -229 697 outlet~;
#X obj -159 -3 inlet~;
#X obj -149 17 inlet~;
#X obj -139 37 inlet~;
#X obj -129 57 inlet~;
#X obj -119 77 inlet~;
#X obj -109 97 inlet~;
#X obj -99 117 inlet~;
#X obj -89 137 inlet~;
#X obj -79 157 inlet~;
#X obj -69 177 inlet~;
#X obj -59 197 inlet~;
#X obj -49 217 inlet~;
#X obj -159 237 bandpass~;
#X obj -149 257 bandpass~;
#X obj -139 277 bandpass~;
#X obj -129 297 bandpass~;
#X obj -119 317 bandpass~;
#X obj -109 337 bandpass~;
#X obj -99 357 bandpass~;
#X obj -89 377 bandpass~;
#X obj -79 397 bandpass~;
#X obj -69 417 bandpass~;
#X obj -59 437 bandpass~;
#X obj -49 457 bandpass~;
#X obj -159 477 outlet~;
#X obj -149 497 outlet~;
#X obj -139 517 outlet~;
#X obj -129 537 outlet~;
#X obj -119 557 outlet~;
#X obj -109 577 outlet~;
#X obj -99 597 outlet~;
#X obj -89 617 outlet~;
#X obj -79 637 outlet~;
#X obj -69 657 outlet~;
#X obj -59 677 outlet~;
#X obj -49 697 outlet~;
#X obj 0 -3 inlet frequency-center;
#X obj 10 17 inlet Q-factor;
#X obj 20 37 inlet bypass;
#X connect 0 0 12 0;
#X connect 1 0 13 0;
#X connect 2 0 14 0;
#X connect 3 0 15 0;
#X connect 4 0 16 0;
#X connect 5 0 17 0;
#X connect 6 0 18 0;
#X connect 7 0 19 0;
#X connect 8 0 20 0;
#X connect 9 0 21 0;
#X connect 10 0 22 0;
#X connect 11 0 23 0;
#X connect 12 0 24 0;
#X connect 13 0 25 0;
#X connect 14 0 26 0;
#X connect 15 0 27 0;
#X connect 16 0 28 0;
#X connect 17 0 29 0;
#X connect 18 0 30 0;
#X connect 19 0 31 0;
#X connect 20 0 32 0;
#X connect 21 0 33 0;
#X connect 22 0 34 0;
#X connect 23 0 35 0;
#X connect 36 0 48 0;
#X connect 37 0 49 0;
#X connect 38 0 50 0;
#X connect 39 0 51 0;
#X connect 40 0 52 0;
#X connect 41 0 53 0;
#X connect 42 0 54 0;
#X connect 43 0 55 0;
#X connect 44 0 56 0;
#X connect 45 0 57 0;
#X connect 46 0 58 0;
#X connect 47 0 59 0;
#X connect 48 0 60 0;
#X connect 49 0 61 0;
#X connect 50 0 62 0;
#X connect 51 0 63 0;
#X connect 52 0 64 0;
#X connect 53 0 65 0;
#X connect 54 0 66 0;
#X connect 55 0 67 0;
#X connect 56 0 68 0;
#X connect 57 0 69 0;
#X connect 58 0 70 0;
#X connect 59 0 71 0;
#X connect 72 0 12 1;
#X connect 72 0 13 1;
#X connect 72 0 14 1;
#X connect 72 0 15 1;
#X connect 72 0 16 1;
#X connect 72 0 17 1;
#X connect 72 0 18 1;
#X connect 72 0 19 1;
#X connect 72 0 20 1;
#X connect 72 0 21 1;
#X connect 72 0 22 1;
#X connect 72 0 23 1;
#X connect 72 0 48 1;
#X connect 72 0 49 1;
#X connect 72 0 50 1;
#X connect 72 0 51 1;
#X connect 72 0 52 1;
#X connect 72 0 53 1;
#X connect 72 0 54 1;
#X connect 72 0 55 1;
#X connect 72 0 56 1;
#X connect 72 0 57 1;
#X connect 72 0 58 1;
#X connect 72 0 59 1;
#X connect 73 0 12 2;
#X connect 73 0 13 2;
#X connect 73 0 14 2;
#X connect 73 0 15 2;
#X connect 73 0 16 2;
#X connect 73 0 17 2;
#X connect 73 0 18 2;
#X connect 73 0 19 2;
#X connect 73 0 20 2;
#X connect 73 0 21 2;
#X connect 73 0 22 2;
#X connect 73 0 23 2;
#X connect 73 0 48 2;
#X connect 73 0 49 2;
#X connect 73 0 50 2;
#X connect 73 0 51 2;
#X connect 73 0 52 2;
#X connect 73 0 53 2;
#X connect 73 0 54 2;
#X connect 73 0 55 2;
#X connect 73 0 56 2;
#X connect 73 0 57 2;
#X connect 73 0 58 2;
#X connect 73 0 59 2;
#X connect 74 0 12 3;
#X connect 74 0 13 3;
#X connect 74 0 14 3;
#X connect 74 0 15 3;
#X connect 74 0 16 3;
#X connect 74 0 17 3;
#X connect 74 0 18 3;
#X connect 74 0 19 3;
#X connect 74 0 20 3;
#X connect 74 0 21 3;
#X connect 74 0 22 3;
#X connect 74 0 23 3;
#X connect 74 0 48 3;
#X connect 74 0 49 3;
#X connect 74 0 50 3;
#X connect 74 0 51 3;
#X connect 74 0 52 3;
#X connect 74 0 53 3;
#X connect 74 0 54 3;
#X connect 74 0 55 3;
#X connect 74 0 56 3;
#X connect 74 0 57 3;
#X connect 74 0 58 3;
#X connect 74 0 59 3;
