#N canvas 0 0 638 369 10;
#X obj -2 35 *~ 1/0;
#X obj 47 35 *~ 0/1;
#X obj -3 -5 inlet~;
#X obj -2 115 outlet~;
#X obj 107 35 == 0;
#X obj 48 95 bp~;
#X obj 80 -5 inlet bypass;
#X obj 80 15 t f f;
#X obj 55 55 inlet frequency-center;
#X obj 63 75 inlet Q-factor;
#X obj 159 -5 loadbang;
#X obj 159 15 0;
#X connect 0 0 3 0;
#X connect 1 0 5 0;
#X connect 2 0 0 0;
#X connect 2 0 1 0;
#X connect 4 0 1 1;
#X connect 5 0 3 0;
#X connect 6 0 7 0;
#X connect 7 0 0 1;
#X connect 7 1 4 0;
#X connect 8 0 5 1;
#X connect 9 0 5 2;
#X connect 10 0 11 0;
#X connect 11 0 7 0;
