#N canvas 0 0 625 369 10;
#X obj 106 24 loadbang;
#X obj 133 124 32768;
#X obj 106 144 36;
#X obj 16 24 unpack 1 2 3;
#X obj 16 184 expr $f1 * $f2 / $f3;
#X obj 106 164 t f f f;
#X obj 133 144 t f f f;
#X obj 50 204 expr $f1 * $f2 / $f3;
#X obj 85 224 expr $f1 * $f2 / $f3;
#X obj -17 364 gate 2;
#X obj 16 384 in2cm;
#X obj -17 404 outlet bird-x-pos;
#X obj 17 344 outlet bird-y-pos;
#X obj 52 284 outlet bird-z-pos;
#X obj 16 4 inlet bird-raw-pos;
#X obj 145 64 inlet conversion;
#X obj 145 84 f \$1;
#X obj 145 104 + 1;
#X obj 106 44 t b b b;
#X obj 17 304 gate 2;
#X obj 50 324 in2cm;
#X obj 52 244 gate 2;
#X obj 85 264 in2cm;
#X connect 0 0 18 0;
#X connect 1 0 6 0;
#X connect 2 0 5 0;
#X connect 3 0 4 0;
#X connect 3 1 7 0;
#X connect 3 2 8 0;
#X connect 4 0 9 1;
#X connect 5 0 4 1;
#X connect 5 1 7 1;
#X connect 5 2 8 1;
#X connect 6 0 4 2;
#X connect 6 1 7 2;
#X connect 6 2 8 2;
#X connect 7 0 19 1;
#X connect 8 0 21 1;
#X connect 9 0 11 0;
#X connect 9 1 10 0;
#X connect 10 0 11 0;
#X connect 14 0 3 0;
#X connect 15 0 16 0;
#X connect 16 0 17 0;
#X connect 17 0 9 0;
#X connect 17 0 19 0;
#X connect 17 0 21 0;
#X connect 18 0 2 0;
#X connect 18 1 1 0;
#X connect 18 2 16 0;
#X connect 19 0 12 0;
#X connect 19 1 20 0;
#X connect 20 0 12 0;
#X connect 21 0 13 0;
#X connect 21 1 22 0;
#X connect 22 0 13 0;
