#N canvas 0 0 450 300 10;
#X obj 0 201 bird;
#X obj 10 58 inlet verbose;
#X obj 0 241 outlet raw_data;
#X obj 0 38 inlet serial_info;
#X msg 10 78 verbose \$1;
#X obj 21 221 outlet serial_info;
#X msg 20 98 set POSANG;
#X obj 20 -2 loadbang;
#X msg 47 178 set POINT;
#X msg 117 178 set STREAM;
#X obj 47 118 inlet acquisition_mode;
#X obj 47 158 sel 0 1;
#X obj 47 138 f \$1;
#X obj 20 18 t b b;
#X obj 204 163 delay 5;
#X connect 0 0 2 0;
#X connect 0 1 5 0;
#X connect 1 0 4 0;
#X connect 3 0 0 0;
#X connect 4 0 0 0;
#X connect 6 0 0 0;
#X connect 7 0 13 0;
#X connect 8 0 0 0;
#X connect 9 0 0 0;
#X connect 10 0 12 0;
#X connect 11 0 8 0;
#X connect 11 1 9 0;
#X connect 12 0 11 0;
#X connect 13 0 6 0;
#X connect 13 1 14 0;
#X connect 14 0 12 0;
