#N canvas 522 231 450 300 10;
#X obj 2 1 inlet bird_raw_data;
#X obj 2 21 unpack 1 2 3 4 5 6;
#X obj 2 41 pack 1 2 3;
#X obj 132 42 pack 1 2 3;
#X obj 2 61 outlet bird_raw_pos;
#X obj 132 62 outlet bird_raw_ang;
#X connect 0 0 1 0;
#X connect 1 0 2 0;
#X connect 1 1 2 1;
#X connect 1 2 2 2;
#X connect 1 3 3 0;
#X connect 1 4 3 1;
#X connect 1 5 3 2;
#X connect 2 0 4 0;
#X connect 3 0 5 0;
