#N canvas 0 0 638 769 10;
#X obj 126 -6 loadbang;
#X obj 153 34 32768;
#X obj 126 14 t b b;
#X obj 6 74 unpack 1 2 3;
#X obj 6 94 expr $f1 * $f2 / $f3;
#X obj 126 74 t f f f;
#X obj 153 54 t f f f;
#X obj 40 114 expr $f1 * $f2 / $f3;
#X obj 75 134 expr $f1 * $f2 / $f3;
#X obj 6 54 inlet bird_raw_ang;
#X obj 126 54 180;
#X obj 6 194 outlet azim;
#X obj 40 174 outlet elev;
#X obj 75 154 outlet roll;
#X connect 0 0 2 0;
#X connect 1 0 6 0;
#X connect 2 0 10 0;
#X connect 2 1 1 0;
#X connect 3 0 4 0;
#X connect 3 1 7 0;
#X connect 3 2 8 0;
#X connect 4 0 11 0;
#X connect 5 0 4 1;
#X connect 5 1 7 1;
#X connect 5 2 8 1;
#X connect 6 0 4 2;
#X connect 6 1 7 2;
#X connect 6 2 8 2;
#X connect 7 0 12 0;
#X connect 8 0 13 0;
#X connect 9 0 3 0;
#X connect 10 0 5 0;
