#N canvas 0 0 638 769 10;
#X obj 4 2 cnv 15 500 50 empty empty bird-conv-pos 20 12 0 14 -260097
-66577 0;
#X floatatom 24 142 5 0 0 3 x - -;
#X floatatom 111 142 5 0 0 3 z - -;
#X text 22 236 see also:;
#X obj 372 262 in2cm;
#X obj 24 262 bird-ctl;
#X obj 86 262 serial-ctl;
#X obj 160 262 bird-raw-pos-ang;
#X obj 280 262 bird-conv-ang;
#X msg 24 82 bird-raw-data;
#X obj 24 122 bird-conv-pos 1;
#X floatatom 111 103 5 0 0 1 in-or-cm - -;
#X text 22 26 convert raw position in readable format (inches or centimeters).
;
#X text 274 128 0/1: inches/centimeters;
#X text 274 108 Arguments;
#X floatatom 67 143 5 0 0 3 y - -;
#X connect 9 0 10 0;
#X connect 10 0 1 0;
#X connect 10 1 15 0;
#X connect 10 2 2 0;
#X connect 11 0 10 1;
