#N canvas 528 168 442 236 10;
#X obj 6 2 inlet data;
#X obj 186 2 inlet value1;
#X obj 336 2 inlet value2;
#X obj 186 -18 loadbang;
#X obj 186 22 f \$1;
#X obj 336 22 f \$2;
#X obj 39 132 expr if ($f1 < $f2 \, 1 \, 0);
#X obj 190 102 expr if ($f1 > $f2 \, 1 \, 0);
#X obj 127 72 expr if ($f1 >= $f2 && $f1 <= $f3 \, 1 \, 0);
#X obj 6 152 spigot;
#X obj 168 152 spigot;
#X obj 95 152 spigot;
#X obj 6 22 t f f f f f f;
#X obj 186 42 t f f;
#X obj 337 42 t f f;
#X obj 5 172 outlet low;
#X obj 95 172 outlet mid;
#X obj 168 173 outlet high;
#X connect 0 0 12 0;
#X connect 1 0 4 0;
#X connect 2 0 5 0;
#X connect 3 0 5 0;
#X connect 3 0 4 0;
#X connect 4 0 13 0;
#X connect 5 0 14 0;
#X connect 6 0 9 1;
#X connect 7 0 10 1;
#X connect 8 0 11 1;
#X connect 9 0 15 0;
#X connect 10 0 17 0;
#X connect 11 0 16 0;
#X connect 12 0 9 0;
#X connect 12 1 10 0;
#X connect 12 2 11 0;
#X connect 12 3 6 0;
#X connect 12 4 7 0;
#X connect 12 5 8 0;
#X connect 13 0 6 1;
#X connect 13 1 8 1;
#X connect 14 0 7 1;
#X connect 14 1 8 2;
