#N canvas 0 0 638 369 10;
#X obj 2 -5 inlet level-dB;
#X obj 84 125 pack \$1 \$2;
#X obj 84 85 inlet val1;
#X obj 141 105 inlet val2;
#X obj 23 85 f \$1;
#X obj 2 105 pipe;
#X obj 84 145 unpack f f;
#X obj 29 165 pack f f;
#X obj 2 15 sel 0;
#X msg 29 185 0 \, \$1 \$2;
#X obj 84 55 loadbang;
#X obj 96 185 pack f f;
#X obj 29 55 t f f;
#X obj 96 165 f;
#X obj 29 35 dbtorms;
#X msg 96 205 \$1 \, 0 \$2;
#X obj 29 235 line~;
#X obj 29 275 outlet~;
#X obj 29 255 fade~ \$3;
#X connect 0 0 8 0;
#X connect 1 0 6 0;
#X connect 2 0 1 0;
#X connect 3 0 1 1;
#X connect 4 0 5 1;
#X connect 5 0 13 0;
#X connect 6 0 7 1;
#X connect 6 1 11 1;
#X connect 7 0 9 0;
#X connect 8 0 5 0;
#X connect 8 1 14 0;
#X connect 9 0 16 0;
#X connect 10 0 1 0;
#X connect 10 0 4 0;
#X connect 11 0 15 0;
#X connect 12 0 7 0;
#X connect 12 1 13 1;
#X connect 13 0 11 0;
#X connect 14 0 12 0;
#X connect 15 0 16 0;
#X connect 16 0 18 0;
#X connect 18 0 17 0;
