#N canvas 0 0 625 769 10;
#X obj 17 154 list-math -;
#X obj 36 779 sum;
#X obj 36 759 list-emath *;
#X obj 36 799 sqrt;
#X obj 17 739 t l l l;
#X obj 17 819 list-math /;
#X obj 23 134 list;
#X obj 17 74 t l l;
#X obj 196 74 t b f;
#X obj 17 199 unpack 1 2 3 4 5 6 7 8 9 10 11 12 13 14 15 16 17 18 19
20 21 22 23 24;
#X obj 17 719 pack f f f f f f f f f f f f f f f f f f f f f f f f
;
#X obj 61 134 t b f;
#X obj 73 114 f;
#X obj 61 94 t f f;
#X obj 17 54 inlet spk-fmt;
#X obj 196 54 inlet src-width;
#X obj 61 74 inlet src-position;
#X obj 17 234 gaussian-gain;
#X obj 31 254 gaussian-gain;
#X obj 46 274 gaussian-gain;
#X obj 61 294 gaussian-gain;
#X obj 75 314 gaussian-gain;
#X obj 91 334 gaussian-gain;
#X obj 105 354 gaussian-gain;
#X obj 120 374 gaussian-gain;
#X obj 134 394 gaussian-gain;
#X obj 149 414 gaussian-gain;
#X obj 164 434 gaussian-gain;
#X obj 179 454 gaussian-gain;
#X obj 193 474 gaussian-gain;
#X obj 209 494 gaussian-gain;
#X obj 223 514 gaussian-gain;
#X obj 238 534 gaussian-gain;
#X obj 252 554 gaussian-gain;
#X obj 269 574 gaussian-gain;
#X obj 284 594 gaussian-gain;
#X obj 297 614 gaussian-gain;
#X obj 311 634 gaussian-gain;
#X obj 326 654 gaussian-gain;
#X obj 341 674 gaussian-gain;
#X obj 356 694 gaussian-gain;
#X obj 17 839 outlet spk-gain-list;
#X connect 0 0 9 0;
#X connect 1 0 3 0;
#X connect 2 0 1 0;
#X connect 3 0 5 1;
#X connect 4 0 5 0;
#X connect 4 1 2 0;
#X connect 4 2 2 1;
#X connect 5 0 41 0;
#X connect 6 0 0 0;
#X connect 7 0 0 0;
#X connect 7 1 6 1;
#X connect 8 0 12 0;
#X connect 8 1 17 1;
#X connect 8 1 18 1;
#X connect 8 1 19 1;
#X connect 8 1 20 1;
#X connect 8 1 21 1;
#X connect 8 1 22 1;
#X connect 8 1 23 1;
#X connect 8 1 24 1;
#X connect 8 1 25 1;
#X connect 8 1 26 1;
#X connect 8 1 27 1;
#X connect 8 1 28 1;
#X connect 8 1 29 1;
#X connect 8 1 30 1;
#X connect 8 1 31 1;
#X connect 8 1 32 1;
#X connect 8 1 33 1;
#X connect 8 1 34 1;
#X connect 8 1 35 1;
#X connect 8 1 36 1;
#X connect 8 1 37 1;
#X connect 8 1 38 1;
#X connect 8 1 39 1;
#X connect 8 1 40 1;
#X connect 9 0 17 0;
#X connect 9 1 18 0;
#X connect 9 2 19 0;
#X connect 9 3 20 0;
#X connect 9 4 21 0;
#X connect 9 5 22 0;
#X connect 9 6 23 0;
#X connect 9 7 24 0;
#X connect 9 8 25 0;
#X connect 9 9 26 0;
#X connect 9 10 27 0;
#X connect 9 11 28 0;
#X connect 9 12 29 0;
#X connect 9 13 30 0;
#X connect 9 14 31 0;
#X connect 9 15 32 0;
#X connect 9 16 33 0;
#X connect 9 17 34 0;
#X connect 9 18 35 0;
#X connect 9 19 36 0;
#X connect 9 20 37 0;
#X connect 9 21 38 0;
#X connect 9 22 39 0;
#X connect 9 23 40 0;
#X connect 10 0 4 0;
#X connect 11 0 6 0;
#X connect 11 1 0 1;
#X connect 12 0 11 0;
#X connect 13 0 11 0;
#X connect 13 1 12 1;
#X connect 14 0 7 0;
#X connect 15 0 8 0;
#X connect 16 0 13 0;
#X connect 17 0 10 0;
#X connect 18 0 10 1;
#X connect 19 0 10 2;
#X connect 20 0 10 3;
#X connect 21 0 10 4;
#X connect 22 0 10 5;
#X connect 23 0 10 6;
#X connect 24 0 10 7;
#X connect 25 0 10 8;
#X connect 26 0 10 9;
#X connect 27 0 10 10;
#X connect 28 0 10 11;
#X connect 29 0 10 12;
#X connect 30 0 10 13;
#X connect 31 0 10 14;
#X connect 32 0 10 15;
#X connect 33 0 10 16;
#X connect 34 0 10 17;
#X connect 35 0 10 18;
#X connect 36 0 10 19;
#X connect 37 0 10 20;
#X connect 38 0 10 21;
#X connect 39 0 10 22;
#X connect 40 0 10 23;
