#N canvas 0 0 638 369 10;
#X obj 4 21 * 2;
#X obj 4 81 /;
#X obj 4 121 pow 2;
#X obj 4 141 * -1;
#X obj 4 161 exp;
#X obj 4 181 sqrt;
#X obj 4 101 abs;
#X obj 19 61 expr if($f1 > 0 \, $f1 \, 1);
#X obj 200 42 loadbang;
#X obj 4 1 inlet spk-position;
#X obj 4 201 outlet gain;
#X obj 19 41 inlet src-width;
#X obj 200 62 f \$1;
#X connect 0 0 1 0;
#X connect 1 0 6 0;
#X connect 2 0 3 0;
#X connect 3 0 4 0;
#X connect 4 0 5 0;
#X connect 5 0 10 0;
#X connect 6 0 2 0;
#X connect 7 0 1 1;
#X connect 8 0 12 0;
#X connect 9 0 0 0;
#X connect 11 0 7 0;
#X connect 12 0 1 1;
