#N canvas 0 0 638 369 10;
#X obj 23 106 get-displacement;
#X floatatom 23 167 5 0 0 3 displacement_deg - -;
#X obj 2 -1 cnv 15 500 50 empty empty get-displacement 20 12 0 14 -260097
-66577 0;
#X text 20 20 Get the displacement according to the duration and speed
of an object.;
#X floatatom 69 147 5 0 0 3 bound1_deg - -;
#X floatatom 116 127 5 0 0 3 bound2_deg - -;
#X floatatom 23 87 5 0 0 2 duration_ms - -;
#X floatatom 116 87 5 0 0 2 speed_deg/s - -;
#X connect 0 0 1 0;
#X connect 0 1 4 0;
#X connect 0 2 5 0;
#X connect 6 0 0 0;
#X connect 7 0 0 1;
