#N canvas 0 0 638 369 10;
#X obj 0 22 expr $f1 * $f2 / 1000;
#X obj 0 42 t f f;
#X obj 27 62 / 2;
#X obj 27 82 t f f;
#X obj 27 142 outlet bound1;
#X obj 54 102 outlet bound2;
#X obj 27 122 * -1;
#X obj 0 2 inlet duration;
#X obj 123 2 inlet speed;
#X obj 0 162 outlet total-disp;
#X connect 0 0 1 0;
#X connect 1 0 9 0;
#X connect 1 1 2 0;
#X connect 2 0 3 0;
#X connect 3 0 6 0;
#X connect 3 1 5 0;
#X connect 6 0 4 0;
#X connect 7 0 0 0;
#X connect 8 0 0 1;
