#N canvas 0 400 638 369 10;
#X obj -47 -2 keyname;
#X obj 49 38 inlet reset;
#X obj -8 78 outlet bang;
#X obj -8 18 select \$1;
#X obj -8 58 onebang \$2;
#X obj 43 -2 inlet button-def;
#X connect 0 1 3 0;
#X connect 1 0 4 1;
#X connect 3 0 4 0;
#X connect 4 0 2 0;
#X connect 5 0 3 1;
