#N canvas 627 32 638 769 10;
#X obj 0 4 inlet~;
#X obj 10 24 inlet~;
#X obj 20 44 inlet~;
#X obj 30 64 inlet~;
#X obj 40 84 inlet~;
#X obj 50 104 inlet~;
#X obj 60 124 inlet~;
#X obj 70 144 inlet~;
#X obj 80 164 inlet~;
#X obj 90 184 inlet~;
#X obj 100 204 inlet~;
#X obj 110 224 inlet~;
#X obj 180 4 inlet~;
#X obj 190 24 inlet~;
#X obj 200 44 inlet~;
#X obj 210 64 inlet~;
#X obj 220 84 inlet~;
#X obj 230 104 inlet~;
#X obj 240 124 inlet~;
#X obj 250 144 inlet~;
#X obj 260 164 inlet~;
#X obj 270 184 inlet~;
#X obj 280 204 inlet~;
#X obj 290 224 inlet~;
#X obj 0 484 outlet~;
#X obj 10 504 outlet~;
#X obj 20 524 outlet~;
#X obj 30 544 outlet~;
#X obj 40 564 outlet~;
#X obj 50 584 outlet~;
#X obj 60 604 outlet~;
#X obj 70 624 outlet~;
#X obj 80 644 outlet~;
#X obj 90 664 outlet~;
#X obj 100 684 outlet~;
#X obj 110 704 outlet~;
#X obj 180 484 outlet~;
#X obj 190 504 outlet~;
#X obj 200 524 outlet~;
#X obj 210 544 outlet~;
#X obj 220 564 outlet~;
#X obj 230 584 outlet~;
#X obj 240 604 outlet~;
#X obj 250 624 outlet~;
#X obj 260 644 outlet~;
#X obj 270 664 outlet~;
#X obj 280 684 outlet~;
#X obj 290 704 outlet~;
#X obj 289 464 *~;
#X obj 279 444 *~;
#X obj 259 404 *~;
#X obj 269 424 *~;
#X obj 249 384 *~;
#X obj 239 364 *~;
#X obj 229 344 *~;
#X obj 219 324 *~;
#X obj 209 304 *~;
#X obj 199 284 *~;
#X obj 189 264 *~;
#X obj 179 244 *~;
#X obj 0 244 *~;
#X obj 10 264 *~;
#X obj 20 284 *~;
#X obj 30 304 *~;
#X obj 40 324 *~;
#X obj 50 344 *~;
#X obj 60 364 *~;
#X obj 70 384 *~;
#X obj 80 404 *~;
#X obj 90 424 *~;
#X obj 100 444 *~;
#X obj 110 464 *~;
#X obj 338 4 inlet level-dB;
#X obj 384 24 inlet attack;
#X obj 431 44 inlet release;
#X obj 338 64 fadeio~ \$1 \$2 \$3;
#X connect 0 0 60 0;
#X connect 1 0 61 0;
#X connect 2 0 62 0;
#X connect 3 0 63 0;
#X connect 4 0 64 0;
#X connect 5 0 65 0;
#X connect 6 0 66 0;
#X connect 7 0 67 0;
#X connect 8 0 68 0;
#X connect 9 0 69 0;
#X connect 10 0 70 0;
#X connect 11 0 71 0;
#X connect 12 0 59 0;
#X connect 13 0 58 0;
#X connect 14 0 57 0;
#X connect 15 0 56 0;
#X connect 16 0 55 0;
#X connect 17 0 54 0;
#X connect 18 0 53 0;
#X connect 19 0 52 0;
#X connect 20 0 50 0;
#X connect 21 0 51 0;
#X connect 22 0 49 0;
#X connect 23 0 48 0;
#X connect 48 0 47 0;
#X connect 49 0 46 0;
#X connect 50 0 44 0;
#X connect 51 0 45 0;
#X connect 52 0 43 0;
#X connect 53 0 42 0;
#X connect 54 0 41 0;
#X connect 55 0 40 0;
#X connect 56 0 39 0;
#X connect 57 0 38 0;
#X connect 58 0 37 0;
#X connect 59 0 36 0;
#X connect 60 0 24 0;
#X connect 61 0 25 0;
#X connect 62 0 26 0;
#X connect 63 0 27 0;
#X connect 64 0 28 0;
#X connect 65 0 29 0;
#X connect 66 0 30 0;
#X connect 67 0 31 0;
#X connect 68 0 32 0;
#X connect 69 0 33 0;
#X connect 70 0 34 0;
#X connect 71 0 35 0;
#X connect 72 0 75 0;
#X connect 73 0 75 1;
#X connect 74 0 75 2;
#X connect 75 0 60 1;
#X connect 75 0 61 1;
#X connect 75 0 62 1;
#X connect 75 0 59 1;
#X connect 75 0 58 1;
#X connect 75 0 57 1;
#X connect 75 0 56 1;
#X connect 75 0 55 1;
#X connect 75 0 54 1;
#X connect 75 0 53 1;
#X connect 75 0 52 1;
#X connect 75 0 50 1;
#X connect 75 0 51 1;
#X connect 75 0 49 1;
#X connect 75 0 48 1;
#X connect 75 0 63 1;
#X connect 75 0 64 1;
#X connect 75 0 65 1;
#X connect 75 0 66 1;
#X connect 75 0 67 1;
#X connect 75 0 68 1;
#X connect 75 0 69 1;
#X connect 75 0 70 1;
#X connect 75 0 71 1;
