#N canvas 0 0 625 356 10;
#X obj 5 8 inlet~;
#X obj 15 28 inlet~;
#X obj 25 48 inlet~;
#X obj 35 68 inlet~;
#X obj 45 88 inlet~;
#X obj 55 108 inlet~;
#X obj 65 128 inlet~;
#X obj 75 148 inlet~;
#X obj 85 168 inlet~;
#X obj 95 188 inlet~;
#X obj 105 208 inlet~;
#X obj 115 228 inlet~;
#X obj 5 248 *~;
#X obj 15 268 *~;
#X obj 25 288 *~;
#X obj 35 308 *~;
#X obj 45 328 *~;
#X obj 55 348 *~;
#X obj 65 368 *~;
#X obj 75 388 *~;
#X obj 85 408 *~;
#X obj 95 428 *~;
#X obj 105 448 *~;
#X obj 115 468 *~;
#X obj 5 488 outlet~;
#X obj 15 508 outlet~;
#X obj 25 528 outlet~;
#X obj 35 548 outlet~;
#X obj 45 568 outlet~;
#X obj 55 588 outlet~;
#X obj 65 608 outlet~;
#X obj 75 628 outlet~;
#X obj 85 648 outlet~;
#X obj 95 668 outlet~;
#X obj 105 688 outlet~;
#X obj 115 708 outlet~;
#X obj 165 8 inlet~;
#X obj 175 28 inlet~;
#X obj 185 48 inlet~;
#X obj 195 68 inlet~;
#X obj 205 88 inlet~;
#X obj 215 108 inlet~;
#X obj 225 128 inlet~;
#X obj 235 148 inlet~;
#X obj 245 168 inlet~;
#X obj 255 188 inlet~;
#X obj 265 208 inlet~;
#X obj 275 228 inlet~;
#X obj 165 248 *~;
#X obj 175 268 *~;
#X obj 185 288 *~;
#X obj 195 308 *~;
#X obj 205 328 *~;
#X obj 215 348 *~;
#X obj 225 368 *~;
#X obj 235 388 *~;
#X obj 245 408 *~;
#X obj 255 428 *~;
#X obj 265 448 *~;
#X obj 275 468 *~;
#X obj 165 488 outlet~;
#X obj 175 508 outlet~;
#X obj 185 528 outlet~;
#X obj 195 548 outlet~;
#X obj 205 568 outlet~;
#X obj 215 588 outlet~;
#X obj 225 608 outlet~;
#X obj 235 628 outlet~;
#X obj 245 648 outlet~;
#X obj 255 668 outlet~;
#X obj 265 688 outlet~;
#X obj 275 708 outlet~;
#X obj 325 85 unpack 1 2 3 4 5 6 7 8 9 10 11 12 13 14 15 16 17 18 19
20 21 22 23 24;
#X obj 325 65 gaussian-spat24;
#X obj 325 5 inlet spk-fmt;
#X obj 368 25 inlet src-pos;
#X obj 411 45 inlet src-width;
#X connect 0 0 12 0;
#X connect 1 0 13 0;
#X connect 2 0 14 0;
#X connect 3 0 15 0;
#X connect 4 0 16 0;
#X connect 5 0 17 0;
#X connect 6 0 18 0;
#X connect 7 0 19 0;
#X connect 8 0 20 0;
#X connect 9 0 21 0;
#X connect 10 0 22 0;
#X connect 11 0 23 0;
#X connect 12 0 24 0;
#X connect 13 0 25 0;
#X connect 14 0 26 0;
#X connect 15 0 27 0;
#X connect 16 0 28 0;
#X connect 17 0 29 0;
#X connect 18 0 30 0;
#X connect 19 0 31 0;
#X connect 20 0 32 0;
#X connect 21 0 33 0;
#X connect 22 0 34 0;
#X connect 23 0 35 0;
#X connect 36 0 48 0;
#X connect 37 0 49 0;
#X connect 38 0 50 0;
#X connect 39 0 51 0;
#X connect 40 0 52 0;
#X connect 41 0 53 0;
#X connect 42 0 54 0;
#X connect 43 0 55 0;
#X connect 44 0 56 0;
#X connect 45 0 57 0;
#X connect 46 0 58 0;
#X connect 47 0 59 0;
#X connect 48 0 60 0;
#X connect 49 0 61 0;
#X connect 50 0 62 0;
#X connect 51 0 63 0;
#X connect 52 0 64 0;
#X connect 53 0 65 0;
#X connect 54 0 66 0;
#X connect 55 0 67 0;
#X connect 56 0 68 0;
#X connect 57 0 69 0;
#X connect 58 0 70 0;
#X connect 59 0 71 0;
#X connect 72 0 12 1;
#X connect 72 1 13 1;
#X connect 72 2 14 1;
#X connect 72 3 15 1;
#X connect 72 4 16 1;
#X connect 72 5 17 1;
#X connect 72 6 18 1;
#X connect 72 7 19 1;
#X connect 72 8 20 1;
#X connect 72 9 21 1;
#X connect 72 10 22 1;
#X connect 72 11 23 1;
#X connect 72 12 48 1;
#X connect 72 13 49 1;
#X connect 72 14 50 1;
#X connect 72 15 51 1;
#X connect 72 16 52 1;
#X connect 72 17 53 1;
#X connect 72 18 54 1;
#X connect 72 19 55 1;
#X connect 72 20 56 1;
#X connect 72 21 57 1;
#X connect 72 22 58 1;
#X connect 72 23 59 1;
#X connect 73 0 72 0;
#X connect 74 0 73 0;
#X connect 75 0 73 1;
#X connect 76 0 73 2;
