#N canvas 0 400 638 369 10;
#X obj 3 2 cnv 15 500 50 empty empty motion24~ 20 12 0 14 -260097 -66577
0;
#X obj 24 143 motion24~ ------------------------------;
#X obj 24 163 motion24~;
#X obj 24 273 gaussian-spat24;
#X text 22 247 This object requires:;
#X text 21 27 Spatialize an incoherent stimulus over 24 channels.;
#X floatatom 261 124 5 0 0 1 src-width(deg) - -;
#X floatatom 251 104 5 0 0 1 src-position - -;
#X msg 242 83 -30 -20 -10 0 10 20 30;
#X text 406 83 speaker format;
#X text 22 203 speaker format: Position in degrees of the speakers
of your sound system.;
#X connect 6 0 1 26;
#X connect 7 0 1 25;
#X connect 8 0 1 24;
