#N canvas 0 0 638 769 10;
#X obj 20 20 inlet~;
#X obj 30 40 inlet~;
#X obj 40 60 inlet~;
#X obj 50 80 inlet~;
#X obj 60 100 inlet~;
#X obj 70 120 inlet~;
#X obj 80 140 inlet~;
#X obj 90 160 inlet~;
#X obj 100 180 inlet~;
#X obj 110 200 inlet~;
#X obj 120 220 inlet~;
#X obj 130 240 inlet~;
#X obj 200 20 inlet~;
#X obj 210 40 inlet~;
#X obj 220 60 inlet~;
#X obj 230 80 inlet~;
#X obj 240 100 inlet~;
#X obj 250 120 inlet~;
#X obj 260 140 inlet~;
#X obj 270 160 inlet~;
#X obj 280 180 inlet~;
#X obj 290 200 inlet~;
#X obj 300 220 inlet~;
#X obj 310 240 inlet~;
#X obj 20 522 outlet~;
#X obj 30 542 outlet~;
#X obj 40 562 outlet~;
#X obj 50 582 outlet~;
#X obj 60 602 outlet~;
#X obj 70 622 outlet~;
#X obj 80 642 outlet~;
#X obj 90 662 outlet~;
#X obj 100 682 outlet~;
#X obj 110 702 outlet~;
#X obj 120 722 outlet~;
#X obj 130 742 outlet~;
#X obj 200 522 outlet~;
#X obj 210 542 outlet~;
#X obj 220 562 outlet~;
#X obj 230 582 outlet~;
#X obj 240 602 outlet~;
#X obj 250 622 outlet~;
#X obj 260 642 outlet~;
#X obj 270 662 outlet~;
#X obj 280 682 outlet~;
#X obj 290 702 outlet~;
#X obj 300 722 outlet~;
#X obj 310 742 outlet~;
#X obj 21 272 *~ 0/1;
#X obj 31 292 *~ 0/1;
#X obj 41 312 *~ 0/1;
#X obj 51 332 *~ 0/1;
#X obj 61 352 *~ 0/1;
#X obj 71 372 *~ 0/1;
#X obj 81 392 *~ 0/1;
#X obj 91 412 *~ 0/1;
#X obj 101 432 *~ 0/1;
#X obj 111 452 *~ 0/1;
#X obj 121 472 *~ 0/1;
#X obj 131 492 *~ 0/1;
#X obj 199 272 *~ 0/1;
#X obj 209 292 *~ 0/1;
#X obj 219 312 *~ 0/1;
#X obj 229 332 *~ 0/1;
#X obj 239 352 *~ 0/1;
#X obj 249 372 *~ 0/1;
#X obj 259 392 *~ 0/1;
#X obj 269 412 *~ 0/1;
#X obj 279 432 *~ 0/1;
#X obj 289 452 *~ 0/1;
#X obj 299 472 *~ 0/1;
#X obj 309 492 *~ 0/1;
#X obj 422 162 f \$1;
#X obj 422 142 initbang;
#X obj 422 122 inlet mute-signal;
#X connect 0 0 48 0;
#X connect 1 0 49 0;
#X connect 2 0 50 0;
#X connect 3 0 51 0;
#X connect 4 0 52 0;
#X connect 5 0 53 0;
#X connect 6 0 54 0;
#X connect 7 0 55 0;
#X connect 8 0 56 0;
#X connect 9 0 57 0;
#X connect 10 0 58 0;
#X connect 11 0 59 0;
#X connect 12 0 60 0;
#X connect 13 0 61 0;
#X connect 14 0 62 0;
#X connect 15 0 63 0;
#X connect 16 0 64 0;
#X connect 17 0 65 0;
#X connect 18 0 66 0;
#X connect 19 0 67 0;
#X connect 20 0 68 0;
#X connect 21 0 69 0;
#X connect 22 0 70 0;
#X connect 23 0 71 0;
#X connect 48 0 24 0;
#X connect 49 0 25 0;
#X connect 50 0 26 0;
#X connect 51 0 27 0;
#X connect 52 0 28 0;
#X connect 53 0 29 0;
#X connect 54 0 30 0;
#X connect 55 0 31 0;
#X connect 56 0 32 0;
#X connect 57 0 33 0;
#X connect 58 0 34 0;
#X connect 59 0 35 0;
#X connect 60 0 36 0;
#X connect 61 0 37 0;
#X connect 62 0 38 0;
#X connect 63 0 39 0;
#X connect 64 0 40 0;
#X connect 65 0 41 0;
#X connect 66 0 42 0;
#X connect 67 0 43 0;
#X connect 68 0 44 0;
#X connect 69 0 45 0;
#X connect 70 0 46 0;
#X connect 71 0 47 0;
#X connect 72 0 48 1;
#X connect 72 0 49 1;
#X connect 72 0 50 1;
#X connect 72 0 51 1;
#X connect 72 0 52 1;
#X connect 72 0 53 1;
#X connect 72 0 54 1;
#X connect 72 0 55 1;
#X connect 72 0 56 1;
#X connect 72 0 57 1;
#X connect 72 0 58 1;
#X connect 72 0 59 1;
#X connect 72 0 60 1;
#X connect 72 0 61 1;
#X connect 72 0 62 1;
#X connect 72 0 63 1;
#X connect 72 0 64 1;
#X connect 72 0 65 1;
#X connect 72 0 66 1;
#X connect 72 0 67 1;
#X connect 72 0 68 1;
#X connect 72 0 69 1;
#X connect 72 0 70 1;
#X connect 72 0 71 1;
#X connect 73 0 72 0;
#X connect 74 0 72 0;
