#N canvas 0 0 638 769 10;
#X obj -4 1 noise~;
#X obj 6 21 noise~;
#X obj 16 41 noise~;
#X obj 26 61 noise~;
#X obj 36 81 noise~;
#X obj 46 101 noise~;
#X obj 56 121 noise~;
#X obj 66 141 noise~;
#X obj 76 161 noise~;
#X obj 86 181 noise~;
#X obj 96 201 noise~;
#X obj 106 221 noise~;
#X obj 205 1 noise~;
#X obj 215 21 noise~;
#X obj 225 41 noise~;
#X obj 235 61 noise~;
#X obj 245 81 noise~;
#X obj 255 101 noise~;
#X obj -4 251 outlet~;
#X obj 6 271 outlet~;
#X obj 16 291 outlet~;
#X obj 26 311 outlet~;
#X obj 36 331 outlet~;
#X obj 46 351 outlet~;
#X obj 265 121 noise~;
#X obj 275 141 noise~;
#X obj 285 161 noise~;
#X obj 295 181 noise~;
#X obj 305 201 noise~;
#X obj 315 221 noise~;
#X obj 56 371 outlet~;
#X obj 66 391 outlet~;
#X obj 76 411 outlet~;
#X obj 86 431 outlet~;
#X obj 96 451 outlet~;
#X obj 106 471 outlet~;
#X obj 205 251 outlet~;
#X obj 215 271 outlet~;
#X obj 225 291 outlet~;
#X obj 235 311 outlet~;
#X obj 245 331 outlet~;
#X obj 255 351 outlet~;
#X obj 265 371 outlet~;
#X obj 275 391 outlet~;
#X obj 285 411 outlet~;
#X obj 295 431 outlet~;
#X obj 305 451 outlet~;
#X obj 315 471 outlet~;
#X connect 0 0 18 0;
#X connect 1 0 19 0;
#X connect 2 0 20 0;
#X connect 3 0 21 0;
#X connect 4 0 22 0;
#X connect 5 0 23 0;
#X connect 6 0 30 0;
#X connect 7 0 31 0;
#X connect 8 0 32 0;
#X connect 9 0 33 0;
#X connect 10 0 34 0;
#X connect 11 0 35 0;
#X connect 12 0 36 0;
#X connect 13 0 37 0;
#X connect 14 0 38 0;
#X connect 15 0 39 0;
#X connect 16 0 40 0;
#X connect 17 0 41 0;
#X connect 24 0 42 0;
#X connect 25 0 43 0;
#X connect 26 0 44 0;
#X connect 27 0 45 0;
#X connect 28 0 46 0;
#X connect 29 0 47 0;
