#N canvas 607 132 638 369 10;
#X obj 4 -1 cnv 15 500 50 empty empty partconv-im 20 12 0 14 -260097
-66577 0;
#X obj 25 91 noise~;
#X obj 67 113 tgl 15 0 empty empty bypass 17 7 0 10 -262144 -1 -1 0
1;
#X msg 111 131 /home/user/filters;
#X floatatom 111 172 5 0 0 1 id - -;
#X obj 24 171 vumeter;
#X text 22 24 Partitionned convolution with bypass.;
#X text 317 65 Arguments:;
#X text 318 84 speaker ID;
#X text 150 204 Warning!!!;
#X text 149 224 In order to work properly \, the speaker ID has \;
to be the same as the filter file name.;
#X text 149 264 Example;
#X text 149 284 Speaker ID: 12 \; filter file name: 12.wav;
#X obj 24 151 partconv-im~ 12;
#X connect 1 0 13 0;
#X connect 2 0 13 1;
#X connect 3 0 13 2;
#X connect 13 0 5 0;
#X connect 13 1 4 0;
