#N canvas 0 0 638 369 10;
#X obj 20 32 inlet~ signal;
#X obj 204 32 inlet file;
#X obj 249 52 loadbang;
#X obj 249 72 float \$1;
#X obj 204 92 pack s f;
#X msg 204 112 \$1/\$2.wav;
#X obj 204 152 list append \$0-\$1;
#X obj 204 192 soundfiler;
#X obj 204 172 list trim;
#X obj 204 132 prepend read -resize;
#X obj 231 232 f \$0;
#X obj 231 252 outlet;
#X obj 21 92 *~ 1/0;
#X obj 48 112 *~ 0/1;
#X obj 81 92 == 0;
#X obj 54 72 t f f;
#X obj 54 52 inlet filt-sw;
#X obj 20 152 outlet~ signal;
#X obj 204 232 0;
#X obj 48 132 partconv~ \$0-\$1 512;
#X obj 367 32 table \$0-\$1;
#X obj 204 212 t b b;
#X connect 0 0 12 0;
#X connect 0 0 13 0;
#X connect 1 0 4 0;
#X connect 2 0 3 0;
#X connect 3 0 4 1;
#X connect 4 0 5 0;
#X connect 5 0 9 0;
#X connect 6 0 8 0;
#X connect 7 0 21 0;
#X connect 8 0 7 0;
#X connect 9 0 6 0;
#X connect 10 0 11 0;
#X connect 12 0 17 0;
#X connect 13 0 19 0;
#X connect 14 0 13 1;
#X connect 15 0 12 1;
#X connect 15 1 14 0;
#X connect 16 0 15 0;
#X connect 18 0 15 0;
#X connect 19 0 17 0;
#X connect 21 0 18 0;
#X connect 21 1 10 0;
