#N canvas 0 0 638 369 10;
#X obj 0 0 inlet value;
#X obj 64 20 inlet percentage;
#X obj 15 60 expr $f1 * $f2 / 100;
#X obj 19 40 float \$1;
#X obj 0 80 -;
#X obj 0 20 t f b f;
#X obj 0 100 outlet new-value;
#X connect 0 0 5 0;
#X connect 1 0 3 1;
#X connect 2 0 4 1;
#X connect 3 0 2 0;
#X connect 4 0 6 0;
#X connect 5 0 4 0;
#X connect 5 1 3 0;
#X connect 5 2 2 1;
