#N canvas 0 0 638 369 10;
#X obj 1 -6 cnv 15 500 50 empty empty percentage 20 12 0 14 -260097
-66577 0;
#X text 19 19 Compute the new value according to a percentage.;
#X obj 22 97 percentage 5;
#X floatatom 91 78 5 0 0 1 % - -;
#X floatatom 22 78 5 0 0 2 val - -;
#X floatatom 22 118 5 0 0 3 val - -;
#X text 231 87 Argument 1: percentage;
#X connect 2 0 5 0;
#X connect 3 0 2 1;
#X connect 4 0 2 0;
