#N canvas 0 0 638 369 10;
#X obj 169 96 outlet~ signal;
#X obj -3 -4 inlet file-to-play;
#X obj -3 36 f \$0;
#X obj -3 56 pack f s;
#X obj 42 36 symbol -wavfile;
#X msg -3 76 \$1\$2;
#X obj 320 -4 table \$0-wavfile;
#X obj -3 96 prepend;
#X obj -3 116 prepend read -resize;
#X obj -3 16 t b b l;
#X obj -3 136 soundfiler;
#X obj 170 36 tabplay~ \$0-wavfile;
#X obj 170 -4 inlet playit;
#X obj 170 16 t b b;
#X obj 197 56 1;
#X obj 197 76 outlet start-stop;
#X obj 281 56 0;
#X connect 1 0 9 0;
#X connect 2 0 3 0;
#X connect 3 0 5 0;
#X connect 4 0 3 1;
#X connect 5 0 7 0;
#X connect 7 0 8 0;
#X connect 8 0 10 0;
#X connect 9 0 2 0;
#X connect 9 1 4 0;
#X connect 9 2 7 1;
#X connect 11 0 0 0;
#X connect 11 1 16 0;
#X connect 12 0 13 0;
#X connect 13 0 11 0;
#X connect 13 1 14 0;
#X connect 14 0 15 0;
#X connect 16 0 15 0;
