#N canvas 0 0 450 300 10;
#X obj -3 -23 inlet initialisation;
#X obj 7 -3 inlet bang;
#X obj -3 17 random 2;
#X obj -3 37 f;
#X obj 26 37 == 0;
#X obj -3 97 outlet value;
#X obj -3 57 t b f;
#X obj 7 77 outlet done;
#X connect 0 0 2 0;
#X connect 1 0 3 0;
#X connect 2 0 3 0;
#X connect 3 0 4 0;
#X connect 3 0 6 0;
#X connect 4 0 3 1;
#X connect 6 0 7 0;
#X connect 6 1 5 0;
