#N canvas 0 0 638 369 10;
#X obj 50 16 inlet duration;
#X obj -1 -4 inlet bang;
#X obj -1 96 outlet duration;
#X obj 65 56 inlet from;
#X obj -1 36 random \$1;
#X obj -1 76 + \$2;
#X connect 0 0 4 1;
#X connect 1 0 4 0;
#X connect 3 0 5 1;
#X connect 4 0 5 0;
#X connect 5 0 2 0;
