#N canvas 0 0 638 769 10;
#X obj 7 233 outlet serial_data;
#X obj 82 213 outlet serial_info;
#X obj 17 32 inlet serial_port;
#X obj 27 72 inlet serial_rate;
#X obj 37 112 inlet serial_close;
#X obj 47 152 inlet serial_get_data;
#X msg 17 52 open \$1;
#X msg 27 92 baud \$1;
#X msg 37 132 close;
#X msg 47 172 info;
#X obj 7 12 inlet serial_data;
#X obj 7 192 comport \$1 \$2;
#X connect 2 0 6 0;
#X connect 3 0 7 0;
#X connect 4 0 8 0;
#X connect 5 0 9 0;
#X connect 6 0 11 0;
#X connect 7 0 11 0;
#X connect 8 0 11 0;
#X connect 9 0 11 0;
#X connect 10 0 11 0;
#X connect 11 0 0 0;
#X connect 11 1 1 0;
