#N canvas 0 0 638 769 10;
#X obj 18 30 partconv-im~ 1;
#X obj 28 50 partconv-im~ 2;
#X obj 38 70 partconv-im~ 3;
#X obj 48 90 partconv-im~ 4;
#X obj 58 110 partconv-im~ 5;
#X obj 68 130 partconv-im~ 6;
#X obj 78 150 partconv-im~ 7;
#X obj 88 170 partconv-im~ 8;
#X obj 98 190 partconv-im~ 9;
#X obj 108 210 partconv-im~ 10;
#X obj 118 230 partconv-im~ 11;
#X obj 128 250 partconv-im~ 12;
#X obj 238 30 partconv-im~ 13;
#X obj 248 50 partconv-im~ 14;
#X obj 258 70 partconv-im~ 15;
#X obj 268 90 partconv-im~ 16;
#X obj 278 110 partconv-im~ 17;
#X obj 288 130 partconv-im~ 18;
#X obj 298 150 partconv-im~ 19;
#X obj 308 170 partconv-im~ 20;
#X obj 318 190 partconv-im~ 21;
#X obj 328 210 partconv-im~ 22;
#X obj 338 230 partconv-im~ 23;
#X obj 348 250 partconv-im~ 24;
#X obj 17 -210 inlet~;
#X obj 27 -190 inlet~;
#X obj 37 -170 inlet~;
#X obj 47 -150 inlet~;
#X obj 57 -130 inlet~;
#X obj 67 -110 inlet~;
#X obj 77 -90 inlet~;
#X obj 87 -70 inlet~;
#X obj 97 -50 inlet~;
#X obj 107 -30 inlet~;
#X obj 117 -10 inlet~;
#X obj 127 10 inlet~;
#X obj 237 -210 inlet~;
#X obj 247 -190 inlet~;
#X obj 257 -170 inlet~;
#X obj 267 -150 inlet~;
#X obj 277 -130 inlet~;
#X obj 287 -110 inlet~;
#X obj 297 -90 inlet~;
#X obj 307 -70 inlet~;
#X obj 317 -50 inlet~;
#X obj 327 -30 inlet~;
#X obj 337 -10 inlet~;
#X obj 347 10 inlet~;
#X obj 19 270 outlet~;
#X obj 29 290 outlet~;
#X obj 39 310 outlet~;
#X obj 49 330 outlet~;
#X obj 59 350 outlet~;
#X obj 69 370 outlet~;
#X obj 79 390 outlet~;
#X obj 89 410 outlet~;
#X obj 99 430 outlet~;
#X obj 109 450 outlet~;
#X obj 119 470 outlet~;
#X obj 129 490 outlet~;
#X obj 239 270 outlet~;
#X obj 249 290 outlet~;
#X obj 259 310 outlet~;
#X obj 269 330 outlet~;
#X obj 279 350 outlet~;
#X obj 289 370 outlet~;
#X obj 299 390 outlet~;
#X obj 309 410 outlet~;
#X obj 319 430 outlet~;
#X obj 329 450 outlet~;
#X obj 339 470 outlet~;
#X obj 349 490 outlet~;
#X obj 388 -210 inlet bypass;
#X obj 429 -190 inlet path-to-filters;
#X connect 0 0 48 0;
#X connect 1 0 49 0;
#X connect 2 0 50 0;
#X connect 3 0 51 0;
#X connect 4 0 52 0;
#X connect 5 0 53 0;
#X connect 6 0 54 0;
#X connect 7 0 55 0;
#X connect 8 0 56 0;
#X connect 9 0 57 0;
#X connect 10 0 58 0;
#X connect 11 0 59 0;
#X connect 12 0 60 0;
#X connect 13 0 61 0;
#X connect 14 0 62 0;
#X connect 15 0 63 0;
#X connect 16 0 64 0;
#X connect 17 0 65 0;
#X connect 18 0 66 0;
#X connect 19 0 67 0;
#X connect 20 0 68 0;
#X connect 21 0 69 0;
#X connect 22 0 70 0;
#X connect 23 0 71 0;
#X connect 24 0 0 0;
#X connect 25 0 1 0;
#X connect 26 0 2 0;
#X connect 27 0 3 0;
#X connect 28 0 4 0;
#X connect 29 0 5 0;
#X connect 30 0 6 0;
#X connect 31 0 7 0;
#X connect 32 0 8 0;
#X connect 33 0 9 0;
#X connect 34 0 10 0;
#X connect 35 0 11 0;
#X connect 36 0 12 0;
#X connect 37 0 13 0;
#X connect 38 0 14 0;
#X connect 39 0 15 0;
#X connect 40 0 16 0;
#X connect 41 0 17 0;
#X connect 42 0 18 0;
#X connect 43 0 19 0;
#X connect 44 0 20 0;
#X connect 45 0 21 0;
#X connect 46 0 22 0;
#X connect 47 0 23 0;
#X connect 72 0 0 1;
#X connect 72 0 1 1;
#X connect 72 0 2 1;
#X connect 72 0 3 1;
#X connect 72 0 4 1;
#X connect 72 0 5 1;
#X connect 72 0 6 1;
#X connect 72 0 7 1;
#X connect 72 0 8 1;
#X connect 72 0 9 1;
#X connect 72 0 10 1;
#X connect 72 0 11 1;
#X connect 72 0 12 1;
#X connect 72 0 13 1;
#X connect 72 0 14 1;
#X connect 72 0 15 1;
#X connect 72 0 16 1;
#X connect 72 0 17 1;
#X connect 72 0 18 1;
#X connect 72 0 19 1;
#X connect 72 0 20 1;
#X connect 72 0 21 1;
#X connect 72 0 22 1;
#X connect 72 0 23 1;
#X connect 73 0 0 2;
#X connect 73 0 1 2;
#X connect 73 0 2 2;
#X connect 73 0 3 2;
#X connect 73 0 4 2;
#X connect 73 0 5 2;
#X connect 73 0 6 2;
#X connect 73 0 7 2;
#X connect 73 0 8 2;
#X connect 73 0 9 2;
#X connect 73 0 10 2;
#X connect 73 0 11 2;
#X connect 73 0 12 2;
#X connect 73 0 13 2;
#X connect 73 0 14 2;
#X connect 73 0 15 2;
#X connect 73 0 16 2;
#X connect 73 0 17 2;
#X connect 73 0 18 2;
#X connect 73 0 19 2;
#X connect 73 0 20 2;
#X connect 73 0 21 2;
#X connect 73 0 22 2;
#X connect 73 0 23 2;
