#N canvas 83 101 596 656 10;
#X obj -16 -1 inlet start;
#X obj 371 -1 inlet speed;
#X obj 171 -1 inlet begin;
#X obj 250 -1 inlet end;
#X obj 445 -1 inlet bf;
#X obj -16 119 metro 1.6129;
#X obj 371 19 abs;
#X obj 371 39 / 1000;
#X obj 188 99 expr if ($f1 <= $f2 \, $f3 \, -$f3);
#X obj 171 139 f;
#X obj 201 139 +;
#X obj 171 159 t f f;
#X obj 250 39 t f f f f f;
#X obj 260 19 r \$0-end;
#X obj 181 19 r \$0-begin;
#X obj 445 19 s \$0-bf;
#X obj 301 119 expr if ($f1 >= $f2 \, 1 \, 2);
#X obj 301 139 gate 2;
#X obj 171 179 outlet position;
#X obj 301 159 >=;
#X obj 334 159 <=;
#X obj -16 159 spigot 1;
#X obj 1 79 1;
#X obj 301 219 sel 0;
#X obj -6 99 r \$0-speed-gen-off;
#X obj 29 139 r \$0-speed-off;
#X obj -16 179 s \$0-speed-bang;
#X obj 181 119 r \$0-speed-bang;
#X obj 334 179 sel 0;
#X obj 35 39 s \$0-init-count;
#X obj 330 259 r \$0-init-count;
#X obj 205 59 pack f f;
#X obj 328 559 swap;
#X obj 328 539 unpack f f;
#X obj 328 519 list;
#X obj 205 79 s \$0-pos-val;
#X obj 349 499 r \$0-pos-val;
#X obj 349 579 s \$0-end;
#X obj 328 599 s \$0-begin;
#X obj 320 399 0;
#X obj 359 439 s \$0-speed-off;
#X obj 339 459 s \$0-speed-gen-off;
#X obj 301 239 onebang 1;
#X obj 334 199 onebang 1;
#X obj 301 279 counter;
#X obj 301 499 t b b;
#X obj 301 619 s \$0-init-bang;
#X obj 352 219 r \$0-init-bang;
#X obj 385 179 r \$0-init-bang;
#X obj -16 19 t b b b b;
#X obj 18 59 s \$0-init-bang;
#X obj 301 319 expr if ($f1 > 0 && $f1 < $f2 \, 1 \, 0);
#X obj 301 379 sel 1 2;
#X obj 311 359 expr if ($f1 == $f2 \, 2 \, 0);
#X obj 514 299 r \$0-bf;
#X obj 464 339 r \$0-bf;
#X obj 301 299 t f f;
#X obj 320 419 t b f f;
#X obj 320 479 outlet done;
#X obj 171 39 t f f f f;
#X connect 0 0 49 0;
#X connect 1 0 6 0;
#X connect 2 0 59 0;
#X connect 3 0 12 0;
#X connect 4 0 15 0;
#X connect 5 0 21 0;
#X connect 6 0 7 0;
#X connect 7 0 8 2;
#X connect 8 0 10 1;
#X connect 9 0 10 0;
#X connect 9 0 11 0;
#X connect 10 0 9 1;
#X connect 11 0 18 0;
#X connect 11 1 17 1;
#X connect 12 0 31 1;
#X connect 12 1 20 1;
#X connect 12 2 8 1;
#X connect 12 3 19 1;
#X connect 12 4 16 1;
#X connect 13 0 12 0;
#X connect 14 0 59 0;
#X connect 16 0 17 0;
#X connect 17 0 19 0;
#X connect 17 1 20 0;
#X connect 19 0 23 0;
#X connect 20 0 28 0;
#X connect 21 0 26 0;
#X connect 22 0 21 1;
#X connect 23 0 42 0;
#X connect 24 0 5 0;
#X connect 25 0 21 1;
#X connect 27 0 9 0;
#X connect 28 0 43 0;
#X connect 30 0 44 3;
#X connect 31 0 35 0;
#X connect 32 0 38 0;
#X connect 32 1 37 0;
#X connect 33 0 32 0;
#X connect 33 1 32 1;
#X connect 34 0 33 0;
#X connect 36 0 34 1;
#X connect 39 0 57 0;
#X connect 42 0 44 0;
#X connect 43 0 44 0;
#X connect 44 0 56 0;
#X connect 45 0 46 0;
#X connect 45 1 34 0;
#X connect 47 0 42 1;
#X connect 48 0 43 1;
#X connect 49 0 5 0;
#X connect 49 1 22 0;
#X connect 49 2 50 0;
#X connect 49 3 29 0;
#X connect 51 0 52 0;
#X connect 52 0 45 0;
#X connect 52 1 39 0;
#X connect 53 0 52 0;
#X connect 54 0 51 1;
#X connect 55 0 53 1;
#X connect 56 0 51 0;
#X connect 56 1 53 0;
#X connect 57 0 58 0;
#X connect 57 1 41 0;
#X connect 57 2 40 0;
#X connect 59 0 9 0;
#X connect 59 1 8 0;
#X connect 59 2 31 0;
#X connect 59 3 16 0;
