#N canvas 0 0 638 769 10;
#X obj -11 -1 cnv 15 500 50 empty empty gaussian-spat24 20 12 0 14
-260097 -66577 0;
#X obj 10 151 gaussian-spat24;
#X obj 10 171 print spk-gains;
#X msg 10 90 180 -90 -75 -60 -52.5 -45 -37.5 -30;
#X floatatom 53 112 5 0 0 1 src-position(deg) - -;
#X floatatom 97 132 5 0 0 1 src-width(deg) - -;
#X text 277 90 speaker format;
#X text 7 214 speaker format: Position in degrees of the speakers of
your sound system.;
#X text 7 254 This object requires:;
#X obj 9 280 gaussian-gain;
#X text 7 24 Compute the gains to apply to a 24 channels sound system
according to the position of the speakers and the source width.;
#X connect 1 0 2 0;
#X connect 3 0 1 0;
#X connect 4 0 1 1;
#X connect 5 0 1 2;
