#N canvas 0 0 638 769 10;
#X obj 1 1 cnv 15 500 50 empty empty mute24~ 20 12 0 14 -260097 -66577
0;
#X text 19 208 See also:;
#X obj 22 234 noise24~;
#X text 325 113 Arguments:;
#X text 325 133 Mute off/on: 0/1;
#X obj 22 124 mute24~ 1;
#X obj 73 106 tgl 15 0 empty empty on/off 17 7 0 10 -262144 -1 -1 0
1;
#X text 19 26 Mute 24 channels at the same time.;
#X connect 6 0 5 24;
