#N canvas 0 0 638 769 10;
#X obj -2 -7 cnv 15 500 50 empty empty serial-ctl 20 12 0 14 -260097
-66577 0;
#X floatatom 46 76 5 0 0 1 port-nb - -;
#X floatatom 74 95 6 0 0 1 rate(baud) - -;
#X obj 102 117 bng 15 250 50 0 empty empty close-port 17 7 0 10 -262144
-1 -1;
#X obj 130 137 bng 15 250 50 0 empty empty get-info 17 7 0 10 -262144
-1 -1;
#X text 16 17 configure the serial communication port;
#X text 284 153 2400 \; 4800 \; 9600 \; 19200 \; 38400 \; 57600 \;
115200;
#X text 283 133 rate choices:;
#X text 283 62 first left input: serial data;
#X obj 19 155 serial-ctl 1 115200;
#X text 284 92 Argument 1: port number \; Argument 2: baud rate \;
;
#X obj 19 195 print serial-data;
#X obj 130 175 print serial-info;
#X connect 1 0 9 1;
#X connect 2 0 9 2;
#X connect 3 0 9 3;
#X connect 4 0 9 4;
#X connect 9 0 11 0;
#X connect 9 1 12 0;
