#N canvas 0 0 506 300 10;
#X obj -5 1 cnv 15 500 50 empty empty stimulus-position 20 12 0 14
-260097 -66577 0;
#X floatatom 16 191 5 0 0 3 azimuth - -;
#X obj 115 192 bng 15 250 50 0 empty empty done 17 7 0 10 -262144 -1
-1;
#X obj 16 170 stimulus-position;
#X text 13 25 Generate the azimuth position stream according to several
parameters.;
#X floatatom 115 151 5 0 0 1 back-forth-nb - -;
#X floatatom 90 131 5 0 0 1 speed-deg/s - -;
#X floatatom 65 111 5 0 0 1 pos-end-deg - -;
#X floatatom 40 91 5 0 0 1 pos-begin-deg - -;
#X obj 16 72 bng 15 250 50 0 empty empty start 17 7 0 10 -262144 -1
-1;
#X connect 3 0 1 0;
#X connect 3 1 2 0;
#X connect 5 0 3 4;
#X connect 6 0 3 3;
#X connect 7 0 3 2;
#X connect 8 0 3 1;
#X connect 9 0 3 0;
